<?xml version="1.0" encoding="UTF-8"?>
<svg id="Layer_1" data-name="Layer 1" xmlns="http://www.w3.org/2000/svg" viewBox="0 0 2437.01 446.78">
  <defs>
    <style>
      .cls-1, .cls-2 {
        fill: #19256b;
      }

      .cls-1, .cls-2, .cls-3 {
        stroke-width: 0px;
      }

      .cls-2 {
        fill-rule: evenodd;
      }

      .cls-3 {
        fill: #ff9400;
      }
    </style>
  </defs>
  <path class="cls-3" d="M2084.65,122.96h-243.15v97.42h243.15v-97.42Z"/>
  <path class="cls-1" d="M2265.46,334.78v-198.42h-96.32v-59.53h267.87v59.53h-98.8v198.42h-72.75Z"/>
  <path class="cls-1" d="M1840.94,334.78v-150.47h211.24c4.41,0,6.61-1.65,6.61-4.96v-38.03c0-1.1-.69-2.21-2.06-3.31-1.38-1.1-2.9-1.65-4.55-1.65h-211.24v-59.53h254.64c3.86,0,7.86,1.24,11.99,3.72,4.41,2.21,8.41,5.1,11.99,8.68,3.58,3.58,6.48,7.58,8.68,11.99,2.48,4.13,3.72,8.13,3.72,11.99v81.85c0,8.82-2.07,16.4-6.2,22.74-3.86,6.34-9.09,11.57-15.71,15.71-6.34,3.86-13.64,6.75-21.91,8.68-7.99,1.65-16.12,2.48-24.39,2.48l98.8,90.11h-101.69l-100.86-90.11h-45.89v90.11h-73.17Z"/>
  <path class="cls-1" d="M1814.5,334.78h-77.72l-19.84-34.72h-151.29l-19.43,34.72h-78.13l136.83-257.95h72.75l136.83,257.95ZM1687.59,240.12l-46.29-84.74-45.48,84.74h91.77Z"/>
  <path class="cls-1" d="M1287.97,334.78h-38.86l-81.02-123.18v123.18h-72.75V76.84h69.44l103.76,159.15,103.76-159.15h69.45v257.95h-72.76v-123.18l-81.02,123.18Z"/>
  <path class="cls-1" d="M1057.98,136.36h-221.16c-1.65,0-3.17.55-4.55,1.65-1.37,1.1-2.06,2.2-2.06,3.31v29.76c0,3.31,2.2,4.96,6.61,4.96h174.44c5.79,0,11.44.83,16.95,2.48,5.79,1.65,10.89,4.41,15.3,8.27,4.41,3.86,7.85,8.82,10.33,14.88,2.76,6.06,4.14,13.64,4.14,22.73v73.99c0,3.86-1.24,7.99-3.72,12.4-2.21,4.13-5.1,7.99-8.68,11.58-3.31,3.58-7.17,6.61-11.58,9.09-4.13,2.21-8.27,3.31-12.4,3.31h-264.15v-59.53h220.75c4.4,0,6.61-1.65,6.61-4.96v-29.76c0-1.1-.69-2.21-2.07-3.31-1.38-1.1-2.89-1.65-4.54-1.65h-177.76c-5.51-.27-10.88-1.38-16.12-3.31-5.23-1.93-9.92-4.68-14.05-8.27-3.86-3.86-7.03-8.82-9.51-14.88-2.2-6.06-3.31-13.36-3.31-21.91v-73.58c0-3.86,1.11-7.85,3.31-11.99,2.48-4.41,5.51-8.41,9.09-11.99,3.86-3.86,7.86-6.89,11.99-9.09,4.41-2.48,8.55-3.72,12.4-3.72h263.74v59.53Z"/>
  <path class="cls-1" d="M1784.89,369.84c0,3.42.52,6.5,1.55,9.23,1.03,2.71,2.45,5.01,4.25,6.9,1.82,1.87,3.96,3.31,6.42,4.32,2.46.98,5.13,1.48,8.01,1.48,1.72,0,3.38-.33,4.98-1,1.6-.66,3.08-1.53,4.43-2.58,1.38-1.08,2.61-2.29,3.69-3.62,1.09-1.35,1.97-2.72,2.66-4.1l3.47,2.22c-1.01,1.65-2.2,3.24-3.58,4.76-1.38,1.5-2.98,2.84-4.8,4.02-1.79,1.16-3.84,2.08-6.13,2.77-2.26.69-4.79,1.03-7.6,1.03-4.06,0-7.75-.68-11.07-2.03-3.3-1.35-6.13-3.19-8.49-5.5-2.37-2.31-4.2-5.01-5.5-8.08-1.28-3.1-1.92-6.37-1.92-9.82,0-2.29.29-4.52.88-6.68.59-2.19,1.44-4.23,2.55-6.13,1.13-1.92,2.5-3.67,4.1-5.24,1.62-1.6,3.44-2.96,5.46-4.1,2.04-1.16,4.27-2.04,6.68-2.66,2.41-.64,4.98-.96,7.72-.96s5,.36,7.19,1.07c2.22.69,4.22,1.61,6.02,2.77,1.82,1.16,3.43,2.5,4.84,4.02,1.42,1.5,2.64,3.08,3.65,4.73l-3.58,2.36c-2.04-3.96-4.33-6.85-6.87-8.68-2.53-1.84-5.45-2.77-8.74-2.77-2.83,0-5.48.52-7.94,1.55-2.46,1.03-4.61,2.51-6.46,4.43-1.82,1.92-3.26,4.26-4.32,7.01-1.03,2.73-1.55,5.82-1.55,9.27Z"/>
  <path class="cls-1" d="M1736.87,345.18h8.23v45.77h24.66v3.17h-32.89v-48.95Z"/>
  <path class="cls-1" d="M1693.16,345.18h15.5c2.56,0,4.96.31,7.2.92,2.24.62,4.18,1.53,5.83,2.73,1.68,1.18,2.98,2.65,3.92,4.39.96,1.72,1.44,3.7,1.44,5.94s-.47,4.15-1.41,5.8c-.91,1.65-2.13,3.01-3.65,4.1-1.5,1.08-3.21,1.9-5.13,2.44-1.92.52-3.88.77-5.87.77-.86,0-1.76-.01-2.7-.04-.93-.05-1.83-.11-2.69-.18-.86-.07-1.66-.16-2.4-.26-.74-.1-1.34-.2-1.81-.29v22.63h-8.23v-48.95ZM1701.39,368.73c.94.32,1.93.59,2.99.81,1.06.2,2.14.29,3.25.29,1.77,0,3.32-.26,4.65-.78,1.33-.54,2.44-1.27,3.32-2.18.89-.93,1.54-2.02,1.96-3.25.44-1.26.66-2.58.66-3.99,0-1.65-.28-3.14-.85-4.47-.56-1.33-1.35-2.46-2.36-3.4-.98-.96-2.15-1.7-3.5-2.21-1.33-.52-2.76-.78-4.29-.78h-5.83v19.93Z"/>
  <path class="cls-1" d="M1649.2,392.18c1.2,0,2.39-.16,3.58-.48,1.18-.34,2.24-.84,3.17-1.48.94-.66,1.69-1.46,2.25-2.4.57-.96.85-2.07.85-3.32,0-1.5-.39-2.83-1.18-3.99-.76-1.18-1.77-2.25-3.03-3.21-1.25-.98-2.69-1.91-4.32-2.77-1.6-.86-3.23-1.72-4.91-2.58-1.67-.86-3.32-1.76-4.94-2.7-1.6-.96-3.03-2.02-4.28-3.17-1.26-1.18-2.28-2.49-3.07-3.91-.76-1.45-1.14-3.11-1.14-4.98s.34-3.61,1.03-5.2c.72-1.6,1.75-2.98,3.1-4.14,1.36-1.18,3.02-2.1,4.99-2.77,1.99-.67,4.27-1,6.82-1,2.32,0,4.38.25,6.21.74,1.82.49,3.42,1.22,4.79,2.18,1.38.96,2.55,2.14,3.51,3.54.96,1.4,1.74,3.03,2.33,4.87l-4.21,1.92c-.49-1.5-1.12-2.87-1.88-4.1-.77-1.26-1.68-2.33-2.74-3.21-1.05-.89-2.28-1.56-3.69-2.03-1.37-.49-2.94-.74-4.68-.74-1.55,0-2.91.22-4.07.66-1.15.42-2.12.98-2.91,1.7-.76.69-1.34,1.48-1.74,2.36-.37.86-.55,1.75-.55,2.66,0,1.28.39,2.46,1.18,3.54.79,1.06,1.83,2.07,3.14,3.03,1.3.93,2.78,1.85,4.43,2.73,1.67.89,3.37,1.78,5.09,2.69,1.73.91,3.41,1.86,5.06,2.84,1.67.98,3.16,2.07,4.47,3.25,1.3,1.16,2.35,2.44,3.13,3.84.79,1.38,1.19,2.93,1.19,4.65,0,1.94-.37,3.78-1.11,5.5-.74,1.7-1.85,3.19-3.32,4.47-1.48,1.26-3.31,2.25-5.5,2.99-2.19.74-4.74,1.11-7.65,1.11-2.36,0-4.46-.26-6.31-.77-1.84-.52-3.48-1.27-4.91-2.25-1.4-.98-2.61-2.18-3.61-3.58-1.01-1.43-1.84-3.05-2.48-4.87l4.39-1.81c.52,1.6,1.21,3.03,2.07,4.28.89,1.26,1.91,2.33,3.07,3.21,1.15.86,2.43,1.53,3.83,1.99,1.43.47,2.95.7,4.55.7Z"/>
  <path class="cls-1" d="M1585.89,345.18h16.98c2.93,0,5.5.32,7.71.96,2.22.62,4.06,1.49,5.54,2.62s2.58,2.49,3.32,4.06c.77,1.55,1.15,3.25,1.15,5.09,0,1.53-.3,2.95-.89,4.28-.57,1.33-1.38,2.53-2.44,3.62-1.03,1.06-2.28,1.98-3.76,2.77-1.48.76-3.1,1.37-4.87,1.81l17.83,23.73h-9.56l-17.02-23h-5.76v23h-8.23v-48.95ZM1594.12,368.66h4.76c1.85,0,3.55-.25,5.1-.74,1.57-.49,2.92-1.18,4.06-2.07,1.15-.91,2.05-2.01,2.69-3.29.64-1.28.96-2.72.96-4.32,0-1.48-.26-2.83-.77-4.06-.5-1.23-1.21-2.28-2.15-3.14-.91-.89-2-1.58-3.28-2.07-1.26-.49-2.63-.74-4.14-.74h-7.23v20.41Z"/>
  <path class="cls-1" d="M1576.22,345.18v3.17h-25.81v17.5h17.28v3.17h-17.28v21.93h25.81v3.17h-34.04v-48.95h34.04Z"/>
  <path class="cls-1" d="M1532.51,345.18v3.17h-25.8v17.5h17.27v3.17h-17.27v21.93h25.8v3.17h-34.03v-48.95h34.03Z"/>
  <path class="cls-1" d="M1444.51,345.18h4.61l32.08,35.81h.37v-35.81h3.62v50.09h-1.92l-34.74-39.79h-.29v38.65h-3.73v-48.95Z"/>
  <path class="cls-1" d="M1422.95,345.18h8.23v48.95h-8.23v-48.95Z"/>
  <path class="cls-1" d="M1390.87,347.58c-2.95,0-5.68.53-8.19,1.59-2.49,1.03-4.64,2.53-6.46,4.5-1.8,1.94-3.2,4.31-4.21,7.09-1.01,2.76-1.51,5.84-1.51,9.27s.54,6.56,1.62,9.34c1.11,2.76,2.61,5.11,4.5,7.05,1.92,1.94,4.17,3.45,6.76,4.5,2.58,1.03,5.35,1.55,8.3,1.55,2.15,0,4.08-.28,5.8-.85,1.72-.59,3.27-1.43,4.65-2.51v-17.16h-9.26v-2.92h17.49v21.52c-1.42.76-2.86,1.44-4.32,2.03-1.45.59-3.02,1.08-4.72,1.48-1.67.39-3.52.69-5.54.89-2.02.22-4.31.33-6.86.33-2.71,0-5.28-.31-7.72-.92-2.44-.59-4.7-1.44-6.79-2.55-2.07-1.11-3.94-2.42-5.61-3.95-1.68-1.55-3.1-3.26-4.28-5.13-1.16-1.87-2.06-3.88-2.7-6.02-.64-2.14-.96-4.37-.96-6.68s.3-4.52.89-6.68c.61-2.19,1.49-4.24,2.62-6.16,1.13-1.94,2.51-3.72,4.13-5.32,1.63-1.6,3.46-2.98,5.5-4.14,2.05-1.16,4.27-2.05,6.68-2.69,2.42-.64,4.97-.96,7.68-.96s4.97.36,7.16,1.07c2.22.69,4.22,1.61,6.02,2.77,1.82,1.16,3.43,2.5,4.84,4.02,1.4,1.5,2.6,3.08,3.61,4.73l-3.54,2.36c-2.07-3.96-4.37-6.85-6.9-8.68-2.51-1.84-5.4-2.77-8.68-2.77Z"/>
  <path class="cls-1" d="M1309.11,345.18h4.61l32.08,35.81h.37v-35.81h3.62v50.09h-1.92l-34.74-39.79h-.29v38.65h-3.73v-48.95Z"/>
  <path class="cls-1" d="M1299.44,345.18v3.17h-25.81v17.5h17.28v3.17h-17.28v21.93h25.81v3.17h-34.04v-48.95h34.04Z"/>
  <path class="cls-1" d="M1217.82,347.58c-2.95,0-5.68.53-8.19,1.59-2.49,1.03-4.64,2.53-6.46,4.5-1.8,1.94-3.2,4.31-4.21,7.09-1.01,2.76-1.52,5.84-1.52,9.27s.55,6.56,1.63,9.34c1.11,2.76,2.61,5.11,4.5,7.05,1.92,1.94,4.17,3.45,6.76,4.5,2.58,1.03,5.35,1.55,8.3,1.55,2.14,0,4.08-.28,5.8-.85,1.72-.59,3.27-1.43,4.65-2.51v-17.16h-9.27v-2.92h17.5v21.52c-1.43.76-2.87,1.44-4.32,2.03-1.45.59-3.03,1.08-4.72,1.48-1.68.39-3.52.69-5.54.89-2.02.22-4.31.33-6.87.33-2.7,0-5.28-.31-7.71-.92-2.44-.59-4.7-1.44-6.79-2.55-2.07-1.11-3.94-2.42-5.61-3.95-1.68-1.55-3.11-3.26-4.29-5.13-1.15-1.87-2.05-3.88-2.69-6.02-.64-2.14-.96-4.37-.96-6.68s.29-4.52.89-6.68c.61-2.19,1.48-4.24,2.62-6.16,1.13-1.94,2.51-3.72,4.13-5.32,1.62-1.6,3.46-2.98,5.5-4.14,2.04-1.16,4.27-2.05,6.68-2.69,2.41-.64,4.97-.96,7.68-.96s4.97.36,7.16,1.07c2.22.69,4.22,1.61,6.02,2.77,1.82,1.16,3.43,2.5,4.83,4.02,1.41,1.5,2.61,3.08,3.62,4.73l-3.54,2.36c-2.07-3.96-4.37-6.85-6.91-8.68-2.51-1.84-5.4-2.77-8.67-2.77Z"/>
  <path class="cls-1" d="M1136.06,345.18h4.61l32.08,35.81h.37v-35.81h3.61v50.09h-1.91l-34.74-39.79h-.3v38.65h-3.72v-48.95Z"/>
  <path class="cls-1" d="M1114.5,345.18h8.23v48.95h-8.23v-48.95Z"/>
  <path class="cls-1" d="M1106.41,345.18v3.17h-17.71v45.77h-8.24v-45.77h-17.71v-3.17h43.66Z"/>
  <path class="cls-1" d="M1027.75,345.18h8.23v45.77h24.66v3.17h-32.89v-48.95Z"/>
  <path class="cls-1" d="M972.9,345.18h8.23v31.78c0,2.09.36,4.06,1.07,5.91.71,1.82,1.73,3.42,3.06,4.8,1.33,1.38,2.93,2.47,4.8,3.29,1.9.79,4,1.18,6.31,1.18s4.45-.39,6.32-1.18c1.87-.81,3.45-1.91,4.76-3.29,1.33-1.38,2.34-2.98,3.03-4.8.71-1.84,1.07-3.81,1.07-5.91v-31.78h3.61v31.78c0,2.51-.4,4.87-1.22,7.09-.81,2.22-2.09,4.16-3.83,5.83-1.73,1.65-3.94,2.96-6.65,3.95-2.71.96-5.95,1.44-9.74,1.44-3.38,0-6.37-.48-8.97-1.44-2.59-.99-4.77-2.31-6.54-3.99-1.74-1.67-3.07-3.63-3.98-5.87-.89-2.26-1.33-4.68-1.33-7.23v-31.56Z"/>
  <path class="cls-1" d="M945.17,392.18c1.21,0,2.4-.16,3.59-.48,1.18-.34,2.23-.84,3.17-1.48.93-.66,1.69-1.46,2.25-2.4.57-.96.85-2.07.85-3.32,0-1.5-.39-2.83-1.18-3.99-.76-1.18-1.77-2.25-3.03-3.21-1.25-.98-2.69-1.91-4.32-2.77-1.6-.86-3.23-1.72-4.91-2.58-1.67-.86-3.32-1.76-4.94-2.7-1.6-.96-3.03-2.02-4.28-3.17-1.26-1.18-2.28-2.49-3.07-3.91-.76-1.45-1.14-3.11-1.14-4.98s.34-3.61,1.03-5.2c.71-1.6,1.75-2.98,3.1-4.14,1.36-1.18,3.02-2.1,4.98-2.77,2-.67,4.27-1,6.83-1,2.32,0,4.38.25,6.21.74,1.82.49,3.42,1.22,4.79,2.18,1.38.96,2.55,2.14,3.51,3.54.96,1.4,1.74,3.03,2.33,4.87l-4.21,1.92c-.49-1.5-1.12-2.87-1.88-4.1-.77-1.26-1.68-2.33-2.74-3.21-1.05-.89-2.28-1.56-3.69-2.03-1.38-.49-2.94-.74-4.69-.74-1.55,0-2.9.22-4.06.66-1.15.42-2.12.98-2.91,1.7-.76.69-1.34,1.48-1.74,2.36-.37.86-.55,1.75-.55,2.66,0,1.28.39,2.46,1.18,3.54.79,1.06,1.83,2.07,3.14,3.03,1.3.93,2.78,1.85,4.43,2.73,1.67.89,3.37,1.78,5.09,2.69,1.72.91,3.41,1.86,5.06,2.84,1.67.98,3.16,2.07,4.47,3.25,1.3,1.16,2.35,2.44,3.13,3.84.79,1.38,1.18,2.93,1.18,4.65,0,1.94-.36,3.78-1.1,5.5-.74,1.7-1.85,3.19-3.32,4.47-1.48,1.26-3.31,2.25-5.5,2.99-2.2.74-4.74,1.11-7.65,1.11-2.36,0-4.46-.26-6.31-.77-1.84-.52-3.48-1.27-4.91-2.25-1.4-.98-2.61-2.18-3.62-3.58-1-1.43-1.83-3.05-2.47-4.87l4.39-1.81c.52,1.6,1.21,3.03,2.07,4.28.89,1.26,1.91,2.33,3.07,3.21,1.15.86,2.43,1.53,3.83,1.99,1.43.47,2.94.7,4.54.7Z"/>
  <path class="cls-1" d="M875.15,345.18h4.61l32.08,35.81h.37v-35.81h3.62v50.09h-1.92l-34.74-39.79h-.29v38.65h-3.73v-48.95Z"/>
  <path class="cls-1" d="M837.02,395.28c-3.79,0-7.34-.68-10.63-2.03-3.28-1.35-6.13-3.2-8.57-5.54-2.41-2.36-4.32-5.11-5.72-8.23-1.38-3.15-2.07-6.51-2.07-10.08,0-2.34.31-4.59.93-6.76.64-2.17,1.53-4.18,2.69-6.05,1.16-1.87,2.55-3.57,4.17-5.09,1.65-1.55,3.47-2.87,5.47-3.95,1.99-1.11,4.14-1.96,6.46-2.55,2.31-.61,4.73-.92,7.27-.92s4.96.31,7.27.92c2.31.59,4.47,1.44,6.46,2.55,2.02,1.08,3.84,2.4,5.46,3.95,1.63,1.53,3.02,3.22,4.17,5.09,1.18,1.87,2.08,3.89,2.7,6.05.64,2.16.96,4.42.96,6.76s-.32,4.65-.96,6.87c-.62,2.19-1.52,4.24-2.7,6.16-1.15,1.92-2.54,3.67-4.17,5.24-1.62,1.58-3.44,2.93-5.46,4.06-1.99,1.13-4.15,2.01-6.46,2.62-2.31.61-4.74.92-7.27.92ZM837.02,392.84c2.8,0,5.28-.58,7.42-1.74,2.16-1.18,3.98-2.82,5.46-4.91,1.48-2.09,2.58-4.57,3.32-7.42.77-2.85,1.15-5.98,1.15-9.38s-.38-6.46-1.15-9.27c-.74-2.81-1.84-5.22-3.32-7.24-1.48-2.04-3.3-3.62-5.46-4.72-2.14-1.13-4.62-1.7-7.42-1.7s-5.37.57-7.53,1.7c-2.14,1.11-3.95,2.68-5.43,4.72-1.45,2.02-2.55,4.43-3.29,7.24-.73,2.8-1.1,5.89-1.1,9.27s.37,6.52,1.1,9.38c.74,2.85,1.84,5.33,3.29,7.42,1.48,2.09,3.29,3.73,5.43,4.91,2.16,1.16,4.67,1.74,7.53,1.74Z"/>
  <path class="cls-1" d="M761.34,369.84c0,3.42.52,6.5,1.55,9.23,1.04,2.71,2.45,5.01,4.25,6.9,1.82,1.87,3.96,3.31,6.42,4.32,2.46.98,5.13,1.48,8.01,1.48,1.73,0,3.39-.33,4.99-1s3.07-1.53,4.43-2.58c1.37-1.08,2.6-2.29,3.69-3.62,1.08-1.35,1.97-2.72,2.65-4.1l3.47,2.22c-1,1.65-2.2,3.24-3.58,4.76-1.37,1.5-2.97,2.84-4.79,4.02-1.8,1.16-3.84,2.08-6.13,2.77-2.27.69-4.8,1.03-7.61,1.03-4.06,0-7.75-.68-11.07-2.03-3.3-1.35-6.13-3.19-8.49-5.5-2.36-2.31-4.2-5.01-5.5-8.08-1.28-3.1-1.92-6.37-1.92-9.82,0-2.29.29-4.52.89-6.68.59-2.19,1.43-4.23,2.54-6.13,1.13-1.92,2.5-3.67,4.1-5.24,1.62-1.6,3.45-2.96,5.46-4.1,2.05-1.16,4.27-2.04,6.68-2.66,2.42-.64,4.99-.96,7.72-.96s5.01.36,7.2,1.07c2.21.69,4.22,1.61,6.01,2.77,1.83,1.16,3.44,2.5,4.84,4.02,1.43,1.5,2.65,3.08,3.65,4.73l-3.58,2.36c-2.04-3.96-4.33-6.85-6.86-8.68-2.54-1.84-5.45-2.77-8.75-2.77-2.83,0-5.48.52-7.94,1.55-2.46,1.03-4.61,2.51-6.46,4.43-1.82,1.92-3.26,4.26-4.32,7.01-1.03,2.73-1.55,5.82-1.55,9.27Z"/>
  <path class="cls-3" d="M599.78,0H0v446.78h599.78V0Z"/>
  <path class="cls-2" d="M550.97,255.04c-2.71-80.57-96.01-108.93-96.01-108.93l-15.35,39.65s57.29,15.08,56.79,80.7c-.57,75.11-128.76,79.69-128.76,79.69h-132.69l12.96-33.64h120.23c23.29,0,81.28-4.9,80.83-55.07-.51-57.3-76.06-51.66-76.06-51.66h-135.41c-18.16,0-45.54-1.76-45.54-19.62s38.54-18.22,38.54-18.22h162.88l38.2-107.13s-192.89-.68-229.04,0c-36.15.68-141.69,22.09-157.59,112.74-15.68,89.43,92.6,126.96,92.6,126.96l15.69-41.65s-71.83-29.67-56.79-84.1c20.99-76.01,112.73-74.09,112.73-74.09h148.37l-12.79,33.44h-126.37s-73.5-.62-74.02,51.07c-.53,52.53,59.18,53.46,59.18,53.46h156.04c14.13,0,40.93-.5,40.93,18.42,0,20.37-26.95,20.83-26.95,20.83h-172.75l-40.08,107.52s118.92,1.8,211.14,1.8,181.79-51.6,179.08-132.16Z"/>
  <path class="cls-1" d="M653.19,0h-16.5v446.78h16.5V0Z"/>
</svg>