<svg width="3332" height="1426" viewBox="0 0 3332 1426" fill="none" xmlns="http://www.w3.org/2000/svg">
<path d="M2528.22 626.225H2285.07V723.647H2528.22V626.225Z" fill="#FF9400"/>
<path d="M2709.03 838.049V639.63H2612.71V580.104H2880.58V639.63H2781.78V838.049H2709.03Z" fill="#19256B"/>
<path d="M2284.51 838.049V687.581H2495.75C2500.16 687.581 2502.36 685.927 2502.36 682.62V644.59C2502.36 643.488 2501.67 642.385 2500.3 641.283C2498.92 640.181 2497.4 639.63 2495.75 639.63H2284.51V580.104H2539.15C2543.01 580.104 2547.01 581.344 2551.14 583.824C2555.55 586.029 2559.55 588.922 2563.13 592.505C2566.71 596.088 2569.61 600.083 2571.81 604.493C2574.29 608.627 2575.53 612.622 2575.53 616.481V698.329C2575.53 707.147 2573.46 714.726 2569.33 721.064C2565.47 727.403 2560.24 732.639 2553.62 736.772C2547.28 740.631 2539.98 743.524 2531.71 745.453C2523.72 747.107 2515.59 747.934 2507.32 747.934L2606.12 838.049H2504.43L2403.57 747.934H2357.68V838.049H2284.51Z" fill="#19256B"/>
<path d="M2258.07 838.049H2180.35L2160.51 803.326H2009.22L1989.79 838.049H1911.66L2048.49 580.104H2121.24L2258.07 838.049ZM2131.16 743.386L2084.87 658.645L2039.39 743.386H2131.16Z" fill="#19256B"/>
<path d="M1731.54 838.049H1692.68L1611.66 714.864V838.049H1538.91V580.104H1608.35L1712.11 739.253L1815.87 580.104H1885.32V838.049H1812.56V714.864L1731.54 838.049Z" fill="#19256B"/>
<path d="M1501.55 639.63H1280.39C1278.74 639.63 1277.22 640.181 1275.84 641.283C1274.47 642.385 1273.78 643.488 1273.78 644.59V674.353C1273.78 677.66 1275.98 679.313 1280.39 679.313H1454.83C1460.62 679.313 1466.27 680.14 1471.78 681.794C1477.57 683.447 1482.67 686.203 1487.08 690.061C1491.49 693.919 1494.93 698.88 1497.41 704.943C1500.17 711.005 1501.55 718.584 1501.55 727.678V801.672C1501.55 805.53 1500.31 809.664 1497.83 814.073C1495.62 818.207 1492.73 822.065 1489.15 825.648C1485.84 829.23 1481.98 832.262 1477.57 834.742C1473.44 836.947 1469.3 838.049 1465.17 838.049H1201.02V778.523H1421.77C1426.17 778.523 1428.38 776.87 1428.38 773.563V743.8C1428.38 742.697 1427.69 741.595 1426.31 740.493C1424.93 739.39 1423.42 738.839 1421.77 738.839H1244.01C1238.5 738.564 1233.13 737.461 1227.89 735.532C1222.66 733.603 1217.97 730.847 1213.84 727.265C1209.98 723.407 1206.81 718.446 1204.33 712.383C1202.13 706.321 1201.02 699.018 1201.02 690.475V616.894C1201.02 613.036 1202.13 609.04 1204.33 604.906C1206.81 600.497 1209.84 596.501 1213.42 592.918C1217.28 589.06 1221.28 586.029 1225.41 583.824C1229.82 581.344 1233.96 580.104 1237.81 580.104H1501.55V639.63Z" fill="#19256B"/>
<path d="M2228.46 873.109C2228.46 876.53 2228.98 879.606 2230.01 882.337C2231.04 885.044 2232.46 887.345 2234.26 889.24C2236.08 891.111 2238.22 892.55 2240.68 893.559C2243.14 894.543 2245.81 895.036 2248.69 895.036C2250.41 895.036 2252.07 894.703 2253.67 894.039C2255.27 893.375 2256.75 892.513 2258.1 891.455C2259.48 890.372 2260.71 889.166 2261.79 887.837C2262.88 886.484 2263.76 885.118 2264.45 883.74L2267.92 885.955C2266.91 887.604 2265.72 889.191 2264.34 890.717C2262.96 892.218 2261.36 893.559 2259.54 894.74C2257.75 895.897 2255.7 896.82 2253.41 897.509C2251.15 898.198 2248.62 898.542 2245.81 898.542C2241.75 898.542 2238.06 897.866 2234.74 896.512C2231.44 895.159 2228.61 893.325 2226.25 891.012C2223.88 888.699 2222.05 886.004 2220.75 882.928C2219.47 879.827 2218.83 876.554 2218.83 873.109C2218.83 870.82 2219.12 868.593 2219.71 866.427C2220.3 864.237 2221.15 862.195 2222.26 860.3C2223.39 858.38 2224.76 856.633 2226.36 855.058C2227.98 853.458 2229.8 852.093 2231.82 850.961C2233.86 849.804 2236.09 848.918 2238.5 848.303C2240.91 847.663 2243.48 847.343 2246.22 847.343C2248.82 847.343 2251.22 847.7 2253.41 848.414C2255.63 849.103 2257.63 850.025 2259.43 851.182C2261.25 852.339 2262.86 853.68 2264.27 855.206C2265.69 856.707 2266.91 858.282 2267.92 859.931L2264.34 862.293C2262.3 858.331 2260.01 855.439 2257.47 853.618C2254.94 851.773 2252.02 850.85 2248.73 850.85C2245.9 850.85 2243.25 851.367 2240.79 852.4C2238.33 853.434 2236.18 854.91 2234.33 856.83C2232.51 858.749 2231.07 861.087 2230.01 863.843C2228.98 866.575 2228.46 869.664 2228.46 873.109Z" fill="#19256B"/>
<path d="M2180.44 848.45H2188.67V894.224H2213.33V897.398H2180.44V848.45Z" fill="#19256B"/>
<path d="M2136.73 848.45H2152.23C2154.79 848.45 2157.19 848.758 2159.43 849.373C2161.67 849.989 2163.61 850.899 2165.26 852.105C2166.94 853.286 2168.24 854.75 2169.18 856.498C2170.14 858.22 2170.62 860.201 2170.62 862.441C2170.62 864.656 2170.15 866.587 2169.21 868.236C2168.3 869.885 2167.08 871.251 2165.56 872.334C2164.06 873.416 2162.35 874.229 2160.43 874.77C2158.51 875.287 2156.55 875.545 2154.56 875.545C2153.7 875.545 2152.8 875.533 2151.86 875.508C2150.93 875.459 2150.03 875.398 2149.17 875.324C2148.31 875.25 2147.51 875.164 2146.77 875.065C2146.03 874.967 2145.43 874.868 2144.96 874.77V897.398H2136.73V848.45ZM2144.96 872.001C2145.9 872.321 2146.89 872.592 2147.95 872.814C2149.01 873.01 2150.09 873.109 2151.2 873.109C2152.97 873.109 2154.52 872.85 2155.85 872.334C2157.18 871.792 2158.29 871.066 2159.17 870.156C2160.06 869.221 2160.71 868.138 2161.13 866.907C2161.57 865.652 2161.79 864.323 2161.79 862.921C2161.79 861.272 2161.51 859.783 2160.94 858.454C2160.38 857.125 2159.59 855.993 2158.58 855.058C2157.6 854.098 2156.43 853.36 2155.08 852.843C2153.75 852.326 2152.32 852.068 2150.79 852.068H2144.96V872.001Z" fill="#19256B"/>
<path d="M2092.77 895.442C2093.97 895.442 2095.16 895.282 2096.35 894.962C2097.53 894.617 2098.59 894.125 2099.52 893.485C2100.46 892.821 2101.21 892.021 2101.77 891.086C2102.34 890.126 2102.62 889.019 2102.62 887.764C2102.62 886.262 2102.23 884.934 2101.44 883.777C2100.68 882.596 2099.67 881.525 2098.41 880.565C2097.16 879.581 2095.72 878.658 2094.09 877.797C2092.49 876.936 2090.86 876.074 2089.18 875.213C2087.51 874.352 2085.86 873.453 2084.24 872.518C2082.64 871.558 2081.21 870.5 2079.96 869.344C2078.7 868.162 2077.68 866.858 2076.89 865.431C2076.13 863.979 2075.75 862.318 2075.75 860.447C2075.75 858.577 2076.09 856.842 2076.78 855.243C2077.5 853.643 2078.53 852.265 2079.88 851.108C2081.24 849.927 2082.9 849.004 2084.87 848.34C2086.86 847.675 2089.14 847.343 2091.69 847.343C2094.01 847.343 2096.07 847.589 2097.9 848.081C2099.72 848.573 2101.32 849.299 2102.69 850.259C2104.07 851.219 2105.24 852.4 2106.2 853.803C2107.16 855.206 2107.94 856.83 2108.53 858.676L2104.32 860.595C2103.83 859.094 2103.2 857.728 2102.44 856.498C2101.67 855.243 2100.76 854.172 2099.7 853.286C2098.65 852.4 2097.42 851.723 2096.01 851.256C2094.64 850.764 2093.07 850.518 2091.33 850.518C2089.78 850.518 2088.42 850.739 2087.26 851.182C2086.11 851.6 2085.14 852.166 2084.35 852.88C2083.59 853.569 2083.01 854.357 2082.61 855.243C2082.24 856.104 2082.06 856.99 2082.06 857.9C2082.06 859.18 2082.45 860.361 2083.24 861.444C2084.03 862.502 2085.07 863.511 2086.38 864.471C2087.68 865.406 2089.16 866.317 2090.81 867.203C2092.48 868.089 2094.18 868.987 2095.9 869.897C2097.63 870.808 2099.31 871.755 2100.96 872.74C2102.63 873.724 2104.12 874.807 2105.43 875.988C2106.73 877.145 2107.78 878.424 2108.56 879.827C2109.35 881.205 2109.75 882.756 2109.75 884.478C2109.75 886.422 2109.38 888.256 2108.64 889.978C2107.9 891.677 2106.79 893.165 2105.32 894.445C2103.84 895.7 2102.01 896.697 2099.82 897.435C2097.63 898.173 2095.08 898.542 2092.17 898.542C2089.81 898.542 2087.71 898.284 2085.86 897.767C2084.02 897.251 2082.38 896.5 2080.95 895.516C2079.55 894.531 2078.34 893.338 2077.34 891.935C2076.33 890.508 2075.5 888.883 2074.86 887.062L2079.25 885.254C2079.77 886.853 2080.46 888.28 2081.32 889.536C2082.21 890.791 2083.23 891.861 2084.39 892.747C2085.54 893.608 2086.82 894.273 2088.22 894.74C2089.65 895.208 2091.17 895.442 2092.77 895.442Z" fill="#19256B"/>
<path d="M2029.46 848.45H2046.44C2049.37 848.45 2051.94 848.77 2054.15 849.41C2056.37 850.025 2058.21 850.899 2059.69 852.031C2061.17 853.163 2062.27 854.517 2063.01 856.092C2063.78 857.642 2064.16 859.34 2064.16 861.186C2064.16 862.711 2063.86 864.139 2063.27 865.468C2062.7 866.797 2061.89 868.002 2060.83 869.085C2059.8 870.143 2058.55 871.066 2057.07 871.854C2055.59 872.617 2053.97 873.22 2052.2 873.663L2070.03 897.398H2060.47L2043.45 874.401H2037.69V897.398H2029.46V848.45ZM2037.69 871.928H2042.45C2044.3 871.928 2046 871.682 2047.55 871.189C2049.12 870.697 2050.47 870.008 2051.61 869.122C2052.76 868.212 2053.66 867.117 2054.3 865.837C2054.94 864.557 2055.26 863.118 2055.26 861.518C2055.26 860.041 2055 858.688 2054.49 857.457C2053.99 856.227 2053.28 855.181 2052.34 854.32C2051.43 853.434 2050.34 852.745 2049.06 852.253C2047.8 851.76 2046.43 851.514 2044.92 851.514H2037.69V871.928Z" fill="#19256B"/>
<path d="M2019.79 848.45V851.625H1993.98V869.122H2011.26V872.297H1993.98V894.224H2019.79V897.398H1985.75V848.45H2019.79Z" fill="#19256B"/>
<path d="M1976.08 848.45V851.625H1950.28V869.122H1967.55V872.297H1950.28V894.224H1976.08V897.398H1942.05V848.45H1976.08Z" fill="#19256B"/>
<path d="M1888.08 848.45H1892.69L1924.77 884.257H1925.14V848.45H1928.76V898.542H1926.84L1892.1 858.749H1891.81V897.398H1888.08V848.45Z" fill="#19256B"/>
<path d="M1866.52 848.45H1874.75V897.398H1866.52V848.45Z" fill="#19256B"/>
<path d="M1834.44 850.85C1831.49 850.85 1828.76 851.379 1826.25 852.437C1823.76 853.471 1821.61 854.972 1819.79 856.941C1817.99 858.885 1816.59 861.247 1815.58 864.028C1814.57 866.784 1814.07 869.873 1814.07 873.293C1814.07 876.739 1814.61 879.852 1815.69 882.633C1816.8 885.389 1818.3 887.739 1820.19 889.683C1822.11 891.627 1824.36 893.128 1826.95 894.187C1829.53 895.22 1832.3 895.737 1835.25 895.737C1837.4 895.737 1839.33 895.454 1841.05 894.888C1842.77 894.297 1844.32 893.461 1845.7 892.378V875.213H1836.44V872.297H1853.93V893.818C1852.51 894.58 1851.07 895.257 1849.61 895.848C1848.16 896.438 1846.59 896.931 1844.89 897.324C1843.22 897.718 1841.37 898.013 1839.35 898.21C1837.33 898.432 1835.04 898.542 1832.49 898.542C1829.78 898.542 1827.21 898.235 1824.77 897.62C1822.33 897.029 1820.07 896.18 1817.98 895.073C1815.91 893.965 1814.04 892.649 1812.37 891.123C1810.69 889.572 1809.27 887.862 1808.09 885.992C1806.93 884.121 1806.03 882.116 1805.39 879.975C1804.75 877.834 1804.43 875.607 1804.43 873.293C1804.43 871.005 1804.73 868.778 1805.32 866.612C1805.93 864.422 1806.81 862.367 1807.94 860.447C1809.07 858.503 1810.45 856.731 1812.07 855.132C1813.7 853.532 1815.53 852.154 1817.57 850.997C1819.62 849.841 1821.84 848.943 1824.25 848.303C1826.67 847.663 1829.22 847.343 1831.93 847.343C1834.52 847.343 1836.9 847.7 1839.09 848.414C1841.31 849.103 1843.31 850.025 1845.11 851.182C1846.93 852.339 1848.54 853.68 1849.95 855.206C1851.35 856.707 1852.55 858.282 1853.56 859.931L1850.02 862.293C1847.95 858.331 1845.65 855.439 1843.12 853.618C1840.61 851.773 1837.72 850.85 1834.44 850.85Z" fill="#19256B"/>
<path d="M1752.68 848.45H1757.29L1789.37 884.257H1789.74V848.45H1793.36V898.542H1791.44L1756.7 858.749H1756.41V897.398H1752.68V848.45Z" fill="#19256B"/>
<path d="M1743.01 848.45V851.625H1717.2V869.122H1734.48V872.297H1717.2V894.224H1743.01V897.398H1708.97V848.45H1743.01Z" fill="#19256B"/>
<path d="M1661.39 850.85C1658.44 850.85 1655.71 851.379 1653.2 852.437C1650.71 853.471 1648.56 854.972 1646.74 856.941C1644.94 858.885 1643.54 861.247 1642.53 864.028C1641.52 866.784 1641.01 869.873 1641.01 873.293C1641.01 876.739 1641.56 879.852 1642.64 882.633C1643.75 885.389 1645.25 887.739 1647.14 889.683C1649.06 891.627 1651.31 893.128 1653.9 894.187C1656.48 895.22 1659.25 895.737 1662.2 895.737C1664.34 895.737 1666.28 895.454 1668 894.888C1669.72 894.297 1671.27 893.461 1672.65 892.378V875.213H1663.38V872.297H1680.88V893.818C1679.45 894.58 1678.01 895.257 1676.56 895.848C1675.11 896.438 1673.53 896.931 1671.84 897.324C1670.16 897.718 1668.32 898.013 1666.3 898.21C1664.28 898.432 1661.99 898.542 1659.43 898.542C1656.73 898.542 1654.15 898.235 1651.72 897.62C1649.28 897.029 1647.02 896.18 1644.93 895.073C1642.86 893.965 1640.99 892.649 1639.32 891.123C1637.64 889.572 1636.21 887.862 1635.03 885.992C1633.88 884.121 1632.98 882.116 1632.34 879.975C1631.7 877.834 1631.38 875.607 1631.38 873.293C1631.38 871.005 1631.67 868.778 1632.27 866.612C1632.88 864.422 1633.75 862.367 1634.89 860.447C1636.02 858.503 1637.4 856.731 1639.02 855.132C1640.64 853.532 1642.48 852.154 1644.52 850.997C1646.56 849.841 1648.79 848.943 1651.2 848.303C1653.61 847.663 1656.17 847.343 1658.88 847.343C1661.46 847.343 1663.85 847.7 1666.04 848.414C1668.26 849.103 1670.26 850.025 1672.06 851.182C1673.88 852.339 1675.49 853.68 1676.89 855.206C1678.3 856.707 1679.5 858.282 1680.51 859.931L1676.97 862.293C1674.9 858.331 1672.6 855.439 1670.06 853.618C1667.55 851.773 1664.66 850.85 1661.39 850.85Z" fill="#19256B"/>
<path d="M1579.63 848.45H1584.24L1616.32 884.257H1616.69V848.45H1620.3V898.542H1618.39L1583.65 858.749H1583.35V897.398H1579.63V848.45Z" fill="#19256B"/>
<path d="M1558.07 848.45H1566.3V897.398H1558.07V848.45Z" fill="#19256B"/>
<path d="M1549.98 848.45V851.625H1532.27V897.398H1524.03V851.625H1506.32V848.45H1549.98Z" fill="#19256B"/>
<path d="M1471.32 848.45H1479.55V894.224H1504.21V897.398H1471.32V848.45Z" fill="#19256B"/>
<path d="M1416.47 848.45H1424.7V880.233C1424.7 882.325 1425.06 884.294 1425.77 886.139C1426.48 887.961 1427.5 889.56 1428.83 890.938C1430.16 892.316 1431.76 893.411 1433.63 894.224C1435.53 895.011 1437.63 895.405 1439.94 895.405C1442.28 895.405 1444.39 895.011 1446.26 894.224C1448.13 893.411 1449.71 892.316 1451.02 890.938C1452.35 889.56 1453.36 887.961 1454.05 886.139C1454.76 884.294 1455.12 882.325 1455.12 880.233V848.45H1458.73V880.233C1458.73 882.743 1458.33 885.106 1457.51 887.321C1456.7 889.536 1455.42 891.48 1453.68 893.153C1451.95 894.802 1449.74 896.118 1447.03 897.103C1444.32 898.063 1441.08 898.542 1437.29 898.542C1433.91 898.542 1430.92 898.063 1428.32 897.103C1425.73 896.118 1423.55 894.79 1421.78 893.116C1420.04 891.443 1418.71 889.486 1417.8 887.247C1416.91 884.983 1416.47 882.571 1416.47 880.012V848.45Z" fill="#19256B"/>
<path d="M1388.74 895.442C1389.95 895.442 1391.14 895.282 1392.33 894.962C1393.51 894.617 1394.56 894.125 1395.5 893.485C1396.43 892.821 1397.19 892.021 1397.75 891.086C1398.32 890.126 1398.6 889.019 1398.6 887.764C1398.6 886.262 1398.21 884.934 1397.42 883.777C1396.66 882.596 1395.65 881.525 1394.39 880.565C1393.14 879.581 1391.7 878.658 1390.07 877.797C1388.47 876.936 1386.84 876.074 1385.16 875.213C1383.49 874.352 1381.84 873.453 1380.22 872.518C1378.62 871.558 1377.19 870.5 1375.94 869.344C1374.68 868.162 1373.66 866.858 1372.87 865.431C1372.11 863.979 1371.73 862.318 1371.73 860.447C1371.73 858.577 1372.07 856.842 1372.76 855.243C1373.47 853.643 1374.51 852.265 1375.86 851.108C1377.22 849.927 1378.88 849.004 1380.84 848.34C1382.84 847.675 1385.11 847.343 1387.67 847.343C1389.99 847.343 1392.05 847.589 1393.88 848.081C1395.7 848.573 1397.3 849.299 1398.67 850.259C1400.05 851.219 1401.22 852.4 1402.18 853.803C1403.14 855.206 1403.92 856.83 1404.51 858.676L1400.3 860.595C1399.81 859.094 1399.18 857.728 1398.42 856.498C1397.65 855.243 1396.74 854.172 1395.68 853.286C1394.63 852.4 1393.4 851.723 1391.99 851.256C1390.61 850.764 1389.05 850.518 1387.3 850.518C1385.75 850.518 1384.4 850.739 1383.24 851.182C1382.09 851.6 1381.12 852.166 1380.33 852.88C1379.57 853.569 1378.99 854.357 1378.59 855.243C1378.22 856.104 1378.04 856.99 1378.04 857.9C1378.04 859.18 1378.43 860.361 1379.22 861.444C1380.01 862.502 1381.05 863.511 1382.36 864.471C1383.66 865.406 1385.14 866.317 1386.79 867.203C1388.46 868.089 1390.16 868.987 1391.88 869.897C1393.6 870.808 1395.29 871.755 1396.94 872.74C1398.61 873.724 1400.1 874.807 1401.41 875.988C1402.71 877.145 1403.76 878.424 1404.54 879.827C1405.33 881.205 1405.72 882.756 1405.72 884.478C1405.72 886.422 1405.36 888.256 1404.62 889.978C1403.88 891.677 1402.77 893.165 1401.3 894.445C1399.82 895.7 1397.99 896.697 1395.8 897.435C1393.6 898.173 1391.06 898.542 1388.15 898.542C1385.79 898.542 1383.69 898.284 1381.84 897.767C1380 897.251 1378.36 896.5 1376.93 895.516C1375.53 894.531 1374.32 893.338 1373.31 891.935C1372.31 890.508 1371.48 888.883 1370.84 887.062L1375.23 885.254C1375.75 886.853 1376.44 888.28 1377.3 889.536C1378.19 890.791 1379.21 891.861 1380.37 892.747C1381.52 893.608 1382.8 894.273 1384.2 894.74C1385.63 895.208 1387.14 895.442 1388.74 895.442Z" fill="#19256B"/>
<path d="M1318.72 848.45H1323.33L1355.41 884.257H1355.78V848.45H1359.4V898.542H1357.48L1322.74 858.749H1322.45V897.398H1318.72V848.45Z" fill="#19256B"/>
<path d="M1280.59 898.542C1276.8 898.542 1273.25 897.866 1269.96 896.512C1266.68 895.159 1263.83 893.313 1261.39 890.975C1258.98 888.613 1257.07 885.869 1255.67 882.743C1254.29 879.593 1253.6 876.234 1253.6 872.666C1253.6 870.328 1253.91 868.076 1254.53 865.911C1255.17 863.745 1256.06 861.727 1257.22 859.857C1258.38 857.987 1259.77 856.288 1261.39 854.763C1263.04 853.212 1264.86 851.896 1266.86 850.813C1268.85 849.706 1271 848.856 1273.32 848.266C1275.63 847.651 1278.05 847.343 1280.59 847.343C1283.12 847.343 1285.55 847.651 1287.86 848.266C1290.17 848.856 1292.33 849.706 1294.32 850.813C1296.34 851.896 1298.16 853.212 1299.78 854.763C1301.41 856.288 1302.8 857.987 1303.95 859.857C1305.13 861.727 1306.03 863.745 1306.65 865.911C1307.29 868.076 1307.61 870.328 1307.61 872.666C1307.61 875.028 1307.29 877.317 1306.65 879.532C1306.03 881.722 1305.13 883.777 1303.95 885.696C1302.8 887.616 1301.41 889.363 1299.78 890.938C1298.16 892.513 1296.34 893.867 1294.32 894.999C1292.33 896.131 1290.17 897.004 1287.86 897.62C1285.55 898.235 1283.12 898.542 1280.59 898.542ZM1280.59 896.106C1283.39 896.106 1285.87 895.528 1288.01 894.371C1290.17 893.19 1291.99 891.553 1293.47 889.462C1294.95 887.37 1296.05 884.897 1296.79 882.042C1297.56 879.187 1297.94 876.062 1297.94 872.666C1297.94 869.294 1297.56 866.206 1296.79 863.401C1296.05 860.595 1294.95 858.183 1293.47 856.165C1291.99 854.123 1290.17 852.548 1288.01 851.44C1285.87 850.308 1283.39 849.742 1280.59 849.742C1277.73 849.742 1275.22 850.308 1273.06 851.44C1270.92 852.548 1269.11 854.123 1267.63 856.165C1266.18 858.183 1265.08 860.595 1264.34 863.401C1263.61 866.206 1263.24 869.294 1263.24 872.666C1263.24 876.062 1263.61 879.187 1264.34 882.042C1265.08 884.897 1266.18 887.37 1267.63 889.462C1269.11 891.553 1270.92 893.19 1273.06 894.371C1275.22 895.528 1277.73 896.106 1280.59 896.106Z" fill="#19256B"/>
<path d="M1204.91 873.109C1204.91 876.53 1205.43 879.606 1206.46 882.337C1207.5 885.044 1208.91 887.345 1210.71 889.24C1212.53 891.111 1214.67 892.55 1217.13 893.559C1219.59 894.543 1222.26 895.036 1225.14 895.036C1226.87 895.036 1228.53 894.703 1230.13 894.039C1231.73 893.375 1233.2 892.513 1234.56 891.455C1235.93 890.372 1237.16 889.166 1238.25 887.837C1239.33 886.484 1240.22 885.118 1240.9 883.74L1244.37 885.955C1243.37 887.604 1242.17 889.191 1240.79 890.717C1239.42 892.218 1237.82 893.559 1236 894.74C1234.2 895.897 1232.16 896.82 1229.87 897.509C1227.6 898.198 1225.07 898.542 1222.26 898.542C1218.2 898.542 1214.51 897.866 1211.19 896.512C1207.89 895.159 1205.06 893.325 1202.7 891.012C1200.34 888.699 1198.5 886.004 1197.2 882.928C1195.92 879.827 1195.28 876.554 1195.28 873.109C1195.28 870.82 1195.57 868.593 1196.17 866.427C1196.76 864.237 1197.6 862.195 1198.71 860.3C1199.84 858.38 1201.21 856.633 1202.81 855.058C1204.43 853.458 1206.26 852.093 1208.27 850.961C1210.32 849.804 1212.54 848.918 1214.95 848.303C1217.37 847.663 1219.94 847.343 1222.67 847.343C1225.28 847.343 1227.68 847.7 1229.87 848.414C1232.08 849.103 1234.09 850.025 1235.88 851.182C1237.71 852.339 1239.32 853.68 1240.72 855.206C1242.15 856.707 1243.37 858.282 1244.37 859.931L1240.79 862.293C1238.75 858.331 1236.46 855.439 1233.93 853.618C1231.39 851.773 1228.48 850.85 1225.18 850.85C1222.35 850.85 1219.7 851.367 1217.24 852.4C1214.78 853.434 1212.63 854.91 1210.78 856.83C1208.96 858.749 1207.52 861.087 1206.46 863.843C1205.43 866.575 1204.91 869.664 1204.91 873.109Z" fill="#19256B"/>
<path d="M1043.35 503.266H443.571V950.041H1043.35V503.266Z" fill="#FF9400"/>
<path fill-rule="evenodd" clip-rule="evenodd" d="M994.54 758.305C991.829 677.738 898.528 649.371 898.528 649.371L883.18 689.022C883.18 689.022 940.471 704.099 939.971 769.719C939.4 844.827 811.211 849.412 811.211 849.412H678.519L691.476 815.774C691.476 815.774 788.418 815.774 811.711 815.774C835.004 815.774 892.995 810.871 892.545 760.704C892.035 703.405 816.484 709.043 816.484 709.043C816.484 709.043 699.23 709.043 681.07 709.043C662.91 709.043 635.535 707.281 635.535 689.421C635.535 671.562 674.076 671.203 674.076 671.203H836.955L875.155 564.072C875.155 564.072 682.261 563.395 646.111 564.072C609.961 564.749 504.424 586.166 488.525 676.808C472.847 766.243 581.126 803.765 581.126 803.765L596.814 762.115C596.814 762.115 524.985 732.442 540.023 678.016C561.015 602.01 652.755 603.927 652.755 603.927H801.125L788.338 637.369H661.97C661.97 637.369 588.47 636.749 587.949 688.434C587.419 740.96 647.132 741.898 647.132 741.898C647.132 741.898 789.049 741.898 803.176 741.898C817.304 741.898 844.109 741.4 844.109 760.32C844.109 780.692 817.164 781.149 817.164 781.149H644.41L604.328 888.664C604.328 888.664 723.253 890.467 815.463 890.467C907.673 890.467 997.252 838.863 994.54 758.305Z" fill="#19256B"/>
<path d="M1096.76 503.266H1080.26V950.041H1096.76V503.266Z" fill="#19256B"/>
</svg>
